# xmcd
#
# Track frame offsets:
# 150
# 7848
# 19577
# 28394
# 39936
# 54191
# 62572
# 75028
# 87507
# 105352
# 114416
# 134778
#
# Disc length: 2029 seconds
#
#
# Revision: 0
# Processed by: cddbd v1.5.1PL0 Copyright (c) Steve Scherf et al.
# Submitted via: FreeRIP 2.90 
#
DISCID=8307eb0c
DTITLE=The Naysayer - Heaven, Hell, Or Houston
DYEAR=2002
DGENRE=Indie
TTITLE0=dead end road
TTITLE1=the naysayer
TTITLE2=my bad blood
TTITLE3=these boys
TTITLE4=break up
TTITLE5=hawaiian pool
TTITLE6=66 cicadas
TTITLE7=things to do
TTITLE8=envy and regret
TTITLE9=i just left myself
TTITLE10=banned by the best
TTITLE11=heaven, hell or, houston
EXTD=
EXTT0=
EXTT1=
EXTT2=
EXTT3=
EXTT4=
EXTT5=
EXTT6=
EXTT7=
EXTT8=
EXTT9=
EXTT10=
EXTT11=
PLAYORDER=
